# xmcd
#
# Track frame offsets:
#	150
#	12910
#	25070
#	34122
#	47600
#	58264
#	73888
#	85493
#	99303
#	110251
#	119949
#	136829
#
# Disc length: 1947 seconds
#
# Revision: 0
# Processed by: cddbd v1.5.2PL0 Copyright (c) Steve Scherf et al.
# Submitted via: dBpowerAMP V4.0
#
DISCID=a507990c
DTITLE=Patsy Cline - Patsy C line Favorites
DYEAR=1900
DGENRE=Country
TTITLE0=I Fall To Pieces
TTITLE1=Crazk
TTITLE2=Walkin' After Midnight
TTITLE3=She's Got You
TTITLE4=Your Cheatin' Heart
TTITLE5=Why Can't He Be Me
TTITLE6=Sweet Dreams (Of You)
TTITLE7=You Belong To Me
TTITLE8=Leavin' On Your Mind
TTITLE9=Blue Moon Of Kentucky
TTITLE10=Faded Love
TTITLE11=Back In Baby's Arms
EXTD=
EXTT0=
EXTT1=
EXTT2=
EXTT3=
EXTT4=
EXTT5=
EXTT6=
EXTT7=
EXTT8=
EXTT9=
EXTT10=
EXTT11=
PLAYORDER=
